<?xml version="1.0" encoding="UTF-8" standalone="no"?>
<!DOCTYPE svg PUBLIC "-//W3C//DTD SVG 1.1//EN"
 "http://www.w3.org/Graphics/SVG/1.1/DTD/svg11.dtd">
<!-- Generated by graphviz version 2.40.1 (20161225.0304)
 -->
<!-- Title: %3 Pages: 1 -->
<svg width="656pt" height="116pt"
 viewBox="0.00 0.00 655.50 116.00" xmlns="http://www.w3.org/2000/svg" xmlns:xlink="http://www.w3.org/1999/xlink">
<g id="graph0" class="graph" transform="scale(1 1) rotate(0) translate(4 112)">
<title>%3</title>
<polygon fill="#ffffff" stroke="transparent" points="-4,4 -4,-112 651.5,-112 651.5,4 -4,4"/>
<!-- [root] var.ami&#45;names -->
<g id="node1" class="node">
<title>[root] var.ami&#45;names</title>
<polygon fill="none" stroke="#000000" points="92,-36 0,-36 0,0 98,0 98,-30 92,-36"/>
<polyline fill="none" stroke="#000000" points="92,-36 92,-30 "/>
<polyline fill="none" stroke="#000000" points="98,-30 92,-30 "/>
<text text-anchor="middle" x="49" y="-14.3" font-family="Times,serif" font-size="14.00" fill="#000000">var.ami&#45;names</text>
</g>
<!-- [root] var.instance_type -->
<g id="node2" class="node">
<title>[root] var.instance_type</title>
<polygon fill="none" stroke="#000000" points="222,-36 116,-36 116,0 228,0 228,-30 222,-36"/>
<polyline fill="none" stroke="#000000" points="222,-36 222,-30 "/>
<polyline fill="none" stroke="#000000" points="228,-30 222,-30 "/>
<text text-anchor="middle" x="172" y="-14.3" font-family="Times,serif" font-size="14.00" fill="#000000">var.instance_type</text>
</g>
<!-- [root] var.priv_key -->
<g id="node3" class="node">
<title>[root] var.priv_key</title>
<polygon fill="none" stroke="#000000" points="326,-36 246,-36 246,0 332,0 332,-30 326,-36"/>
<polyline fill="none" stroke="#000000" points="326,-36 326,-30 "/>
<polyline fill="none" stroke="#000000" points="332,-30 326,-30 "/>
<text text-anchor="middle" x="289" y="-14.3" font-family="Times,serif" font-size="14.00" fill="#000000">var.priv_key</text>
</g>
<!-- [root] var.pub_key -->
<g id="node4" class="node">
<title>[root] var.pub_key</title>
<polygon fill="none" stroke="#000000" points="428,-36 350,-36 350,0 434,0 434,-30 428,-36"/>
<polyline fill="none" stroke="#000000" points="428,-36 428,-30 "/>
<polyline fill="none" stroke="#000000" points="434,-30 428,-30 "/>
<text text-anchor="middle" x="392" y="-14.3" font-family="Times,serif" font-size="14.00" fill="#000000">var.pub_key</text>
</g>
<!-- [root] var.region -->
<g id="node5" class="node">
<title>[root] var.region</title>
<polygon fill="none" stroke="#000000" points="518,-36 452,-36 452,0 524,0 524,-30 518,-36"/>
<polyline fill="none" stroke="#000000" points="518,-36 518,-30 "/>
<polyline fill="none" stroke="#000000" points="524,-30 518,-30 "/>
<text text-anchor="middle" x="488" y="-14.3" font-family="Times,serif" font-size="14.00" fill="#000000">var.region</text>
</g>
<!-- [root] var.zone_names -->
<g id="node6" class="node">
<title>[root] var.zone_names</title>
<polygon fill="none" stroke="#000000" points="641.5,-36 542.5,-36 542.5,0 647.5,0 647.5,-30 641.5,-36"/>
<polyline fill="none" stroke="#000000" points="641.5,-36 641.5,-30 "/>
<polyline fill="none" stroke="#000000" points="647.5,-30 641.5,-30 "/>
<text text-anchor="middle" x="595" y="-14.3" font-family="Times,serif" font-size="14.00" fill="#000000">var.zone_names</text>
</g>
<!-- [root] root -->
<g id="node7" class="node">
<title>[root] root</title>
<ellipse fill="none" stroke="#000000" cx="340" cy="-90" rx="47.3916" ry="18"/>
<text text-anchor="middle" x="340" y="-86.3" font-family="Times,serif" font-size="14.00" fill="#000000">[root] root</text>
</g>
<!-- [root] root&#45;&gt;[root] var.ami&#45;names -->
<g id="edge1" class="edge">
<title>[root] root&#45;&gt;[root] var.ami&#45;names</title>
<path fill="none" stroke="#000000" d="M298.1017,-81.2572C253.293,-71.6926 179.9757,-55.4283 107.9765,-36.1766"/>
<polygon fill="#000000" stroke="#000000" points="108.8556,-32.7887 98.2893,-33.5658 107.034,-39.5475 108.8556,-32.7887"/>
</g>
<!-- [root] root&#45;&gt;[root] var.instance_type -->
<g id="edge2" class="edge">
<title>[root] root&#45;&gt;[root] var.instance_type</title>
<path fill="none" stroke="#000000" d="M308.4005,-76.4574C284.5935,-66.2543 251.4366,-52.0443 223.7751,-40.1893"/>
<polygon fill="#000000" stroke="#000000" points="224.8146,-36.827 214.2444,-36.1047 222.0571,-43.261 224.8146,-36.827"/>
</g>
<!-- [root] root&#45;&gt;[root] var.priv_key -->
<g id="edge3" class="edge">
<title>[root] root&#45;&gt;[root] var.priv_key</title>
<path fill="none" stroke="#000000" d="M327.6543,-72.5708C321.6506,-64.095 314.3072,-53.7279 307.6398,-44.3151"/>
<polygon fill="#000000" stroke="#000000" points="310.4009,-42.1578 301.7646,-36.0206 304.6887,-46.2039 310.4009,-42.1578"/>
</g>
<!-- [root] root&#45;&gt;[root] var.pub_key -->
<g id="edge4" class="edge">
<title>[root] root&#45;&gt;[root] var.pub_key</title>
<path fill="none" stroke="#000000" d="M352.5877,-72.5708C358.7092,-64.095 366.1965,-53.7279 372.9947,-44.3151"/>
<polygon fill="#000000" stroke="#000000" points="375.9676,-46.1766 378.9851,-36.0206 370.2928,-42.0782 375.9676,-46.1766"/>
</g>
<!-- [root] root&#45;&gt;[root] var.region -->
<g id="edge5" class="edge">
<title>[root] root&#45;&gt;[root] var.region</title>
<path fill="none" stroke="#000000" d="M369.24,-75.7751C390.1379,-65.6086 418.6644,-51.7308 442.5213,-40.1248"/>
<polygon fill="#000000" stroke="#000000" points="444.2851,-43.159 451.7463,-35.6369 441.2228,-36.8643 444.2851,-43.159"/>
</g>
<!-- [root] root&#45;&gt;[root] var.zone_names -->
<g id="edge6" class="edge">
<title>[root] root&#45;&gt;[root] var.zone_names</title>
<path fill="none" stroke="#000000" d="M378.4803,-79.3522C415.4009,-69.1096 472.9869,-53.0652 532.3223,-36.1807"/>
<polygon fill="#000000" stroke="#000000" points="533.5865,-39.4599 542.2449,-33.3539 531.6686,-32.7277 533.5865,-39.4599"/>
</g>
</g>
</svg>
